<svg height="155" viewBox="0 0 133 155" width="133" xmlns="http://www.w3.org/2000/svg"><g fill="none" fill-rule="evenodd" transform="translate(5 5)"><g fill="#0a1318"><path d="m36.2320208.5998689-4.5940475 4.49611194 52.4977115.00077666c20.1311282 0 36.4505762 16.237693 36.4505762 36.2694569v9.5074565h-.000335l-2.093569 22.4774688c2.755922 2.3360132 4.504025 5.8145558 4.504025 9.6992463v3.9669822c0 6.1017432-4.312011 11.2011489-10.068109 12.4458454l-.001599 45.4858614.0002.00306h-64.2765804l-.1433203-.001154-1.7062438.00142c.3808831 0 .7606808-.002257 1.13941-.006893-20.8952152-.340389-38.12351422-15.708466-41.22969656-35.71284-.10025462-.645092-.18714196-1.290183-.24729474-1.941926-.01336728-.119707-.02673456-.239415-.03341821-.359123l-.0167567-.144638-.01505743-.14133c-.00835455-.094769-.01503819-.189538-.02172183-.285969-.11362191-1.197078-.16709104-2.407456-.16709104-3.631135l.00006683-50.6496849c0-1.954656.28679643-3.8426606.82084135-5.6246236-4.20607396-4.6137611-6.77803788-10.7414909-6.77803788-17.4890832v-2.8384041c0-4.3502195 1.32739631-8.3918355 3.60115712-11.7457794 1.01815581-1.6291397 2.27965102-3.286665 3.847093-4.86952502 10.24535409-10.34740599 25.34771049-9.21816276 28.53179739-8.91157788z" stroke="#fffefc" stroke-width="10"/><path d="m120.586261 50.8736709-92.9915102 4.1152869c-14.9005104.6597228-27.34277751-11.1827001-27.34277751-26.0238025v-2.8384041c0-11.6149782 9.46269968-21.0299937 21.13567961-21.0299937h10.3329098 52.4151221c20.1311282 0 36.4505762 16.237693 36.4505762 36.2694569z"/><path d="m2.45423317 16.8814547c1.19035656-2.3895 2.86527713-4.965877 5.24599024-7.37000792 10.24535409-10.34740599 25.34771049-9.21816276 28.53179739-8.91157788-3.397295 3.32521563-6.79459 6.65043125-10.1925534 9.9756469"/></g><path d="m84.0344276 50.8736709v18.520786c0 2.3835146 1.9415978 4.3161299 4.337015 4.3161299 2.3954171 0 4.3376833 1.9319503 4.3376833 4.3154649v3.2966187c0 3.8266582 3.1172504 6.9284193 6.9623494 6.9284193h17.4329427l3.481508-37.3774188z" fill="#151e23"/><path d="m112.926874 75.9605607v68.9915743h-64.2765804c-21.2138783 0-38.79853914-15.488855-41.93985066-35.719467-.10025462-.645092-.18714196-1.290183-.24729474-1.941926-.01336728-.119707-.02673456-.239415-.03341821-.359123-.02673456-.192862-.04010184-.379075-.05346913-.571937-.1136219-1.197078-.16709104-2.407456-.16709104-3.631135v-50.6496849c0-10.8535038 8.84245778-19.6520244 19.75684438-19.6520244h38.6314481c11.7698927 0 21.2138782 9.8958418 20.3851067 21.7868128-.8154043 11.704759 8.2342463 21.7469102 20.02419 21.7469102z" fill="#f5c191"/><path d="m50.5160321 69.2959641c1.1622853-.4535595 3.3692237-1.1378888 6.1790266-.9303954 2.5524827.1882072 4.4807133 1.0301518 5.5554429 1.5980987" stroke="#2e333b" stroke-linecap="round" stroke-linejoin="round" stroke-width="6"/><path d="m25.2098938 69.3063387c-1.0947804-.416317-2.9214197-.9523417-5.2212607-.8984732-2.7964356.0665043-4.9104715.9742881-6.0139407 1.5455602" stroke="#2e333b" stroke-linecap="round" stroke-linejoin="round" stroke-width="6"/><path d="m67.0831754 92.1954605-6.0988229 2.5531006c-3.6051562 1.5089828-5.2981226 5.6408959-3.7816044 9.2281379 1.5165183 3.587908 5.6690648 5.272462 9.274221 3.76348l6.0988229-2.553101c3.6058246-1.509648 5.298791-5.6415609 3.7816044-9.2288035-1.5165183-3.5872426-5.6683964-5.2717969-9.274221-3.762814" fill="#f1af85"/><path d="m17.116806 103.766014c-1.1362191 2.693424-3.7628902 4.309479-6.5299178 4.309479-.9156589 0-1.85136871-.172911-2.74697668-.551986l-1.41024836-.591888c-.02673457-.192862-.04010185-.379075-.05346913-.571937-.11362191-1.197078-.16709104-2.407456-.16709104-3.631135v-11.0862694c.34086572.0798052.68173143.1928625 1.02259715.339172l6.10216476 2.5537656c3.6024828 1.5096479 5.3001277 5.6395658 3.7829411 9.2307988" fill="#f1af85"/><path d="m94.0801413 115.727745c-2.9835776 7.014875-7.490357 13.332785-13.3833238 18.193585-10.5507965 8.70342-21.6636873 11.031071-33.896088 11.031071l4.5321773-.003326h61.5937672l.001336-57.079321-10.806111 8.9534756z" fill="#eea676"/><path d="m27.019824 81.5942741c.802037 4.7543933-3.2836731 8.8118214-8.0564615 8.0137696-2.8766394-.4814912-5.1898477-2.7985015-5.6536924-5.6641723-.7626035-4.7211411 3.2642905-8.7386667 8.0123495-7.9805175 2.8833229.4602099 5.2145771 2.7652493 5.6978044 5.6309202" fill="#151e23"/><path d="m62.6073412 82.9093968c.802037 4.7543933-3.2843415 8.8124865-8.0571299 8.0137697-2.8766393-.4814912-5.1898476-2.7985015-5.653024-5.6641723-.7626035-4.7211412 3.2642905-8.7380016 8.0116811-7.9805175 2.8839913.4602098 5.2145771 2.7652493 5.6984728 5.6309201" fill="#151e23"/><path d="m41.3606463 98.9767722h-9.8389887c-2.0124445 0-3.6439214 1.6233708-3.6439214 3.6264798 0 2.002445 1.6314769 3.625816 3.6439214 3.625816h9.8389887c2.0124444 0 3.6445897-1.623371 3.6445897-3.625816 0-2.003109-1.6321453-3.6264798-3.6445897-3.6264798" fill="#ed9d69"/><path d="m50.8593708 113.842149c-8.6713565-.041898-17.3427131-.083131-26.0140696-.125028.3642585.528044 4.9472315 6.927754 13.1841513 6.859254 7.9762578-.067169 12.412859-6.141673 12.8299183-6.734226" fill="#c87762"/><path d="m122.996382 87.0173682c0 7.0341612-5.730555 12.7362409-12.797837 12.7362409-7.069956 0-12.799842-5.7020797-12.799842-12.7362409v-3.9669822c0-7.0334961 5.729886-12.7355759 12.799842-12.7355759 7.067282 0 12.797837 5.7020798 12.797837 12.7355759z" fill="#f5c191"/><path d="m116.591448 85.0342761c0 3.3571377-2.734946 6.0784942-6.108848 6.0784942-3.373903 0-6.108849-2.7213565-6.108849-6.0784942s2.734946-6.0784941 6.108849-6.0784941c3.373902 0 6.108848 2.7213564 6.108848 6.0784941" fill="#eea676"/></g></svg>