<svg height="409" viewBox="0 0 352 409" width="352" xmlns="http://www.w3.org/2000/svg" xmlns:xlink="http://www.w3.org/1999/xlink"><filter id="a" height="121.1%" width="125.1%" x="-12.5%" y="-10.5%"><feOffset dx="0" dy="0" in="SourceAlpha" result="shadowOffsetOuter1"/><feGaussianBlur in="shadowOffsetOuter1" result="shadowBlurOuter1" stdDeviation="10"/><feColorMatrix in="shadowBlurOuter1" result="shadowMatrixOuter1" type="matrix" values="0 0 0 0 1   0 0 0 0 1   0 0 0 0 1  0 0 0 0.5 0"/><feMerge><feMergeNode in="shadowMatrixOuter1"/><feMergeNode in="SourceGraphic"/></feMerge></filter><g fill="none" fill-rule="evenodd" filter="url(#a)" transform="translate(19 19)"><path d="m307.097817 129.369027-236.8218288 10.516076c-37.9473746 1.686283-69.63421829-28.576224-69.63421829-66.5017697v-7.2526548c0-29.6818584 24.09911509-53.74059 53.82681419-53.74059h159.8007079c51.267375 0 92.828525 41.4934808 92.828525 92.6833625z" fill="#0a1318" fill-rule="nonzero"/><path d="m6.25070796 42.5041593c3.03094396-6.1055457 7.29631264-12.6891446 13.35929204-18.8328909 26.0920944-26.44353979 64.5535398-23.55666663 72.6618879-22.77300881l-25.9556637 25.49179941" fill="#0a1318" fill-rule="nonzero"/><path d="m214.010619 129.369027v47.328348c0 6.090265 4.944248 11.029056 11.045428 11.029056s11.046519 4.937699 11.046519 11.027964v8.424868c0 9.779351 7.939174 17.704336 17.731623 17.704336h44.396725l8.865812-95.514572z" fill="#151e23" fill-rule="nonzero"/><path d="m287.591504 193.476165v176.303363h-163.693893c-54.0254576 0-98.808555-39.581268-106.8088499-91.278673-.2608287-1.647368-.4704871-3.302431-.6286726-4.962802-.0349263-.305605-.0687611-.611209-.0851327-.916814-.0623608-.48579-.107865-.973595-.1364307-1.462537-.2877222-3.084377-.429768-6.180612-.4257502-9.278378v-129.431238c0-27.735812 22.5187885-50.2195875 50.3157207-50.2195875h98.3828904c29.973275 0 54.024366 25.2887905 51.914602 55.6746315-2.07702 29.90997 20.969941 55.572035 50.995605 55.572035z" fill="#f5c191" fill-rule="nonzero"/><path d="m128.648673 176.445251c5.002226-1.957311 10.379282-2.769576 15.73646-2.377168 4.947644.369349 9.765067 1.759983 14.148407 4.084188m-94.3314456-1.679734c-4.2416831-1.619863-8.7577909-2.399794-13.2970797-2.296401-5.3389518.135243-10.5767717 1.486132-15.3151622 3.949941" stroke="#2e333b" stroke-linecap="round" stroke-linejoin="round" stroke-width="15"/><g fill-rule="nonzero"><path d="m170.840678 234.963097-15.531268 6.524661c-9.181239 3.856077-13.492448 14.41472-9.630914 23.58177 3.862625 9.168142 14.43764 13.473894 23.618879 9.617817l15.531268-6.524661c9.183422-3.858259 13.494631-14.416902 9.630915-23.583952-3.861534-9.167051-14.435458-13.471711-23.61888-9.615635m-127.2483476 29.568348c-2.8945133 6.882655-9.5828909 11.012722-16.630354 11.012722-2.403233.004855-4.7827542-.475133-6.9961652-1.411276l-3.5908554-1.512744c-.0623357-.485427-.1078399-.972867-.1364307-1.461445-.2877222-3.084377-.429768-6.180612-.4257502-9.278378v-28.330648c.8677856.2041 1.7354847.493333 2.6042752.866607l15.54 6.526844c9.1746903 3.857168 13.4979057 14.411445 9.6341888 23.588318" fill="#f1af85"/><path d="m239.5941 295.098466c-7.597551 17.9259-19.075191 34.070561-34.082566 46.492301-26.870295 22.240383-55.171475 28.188761-86.32351 28.188761l11.542035-.008732h156.861445l.003275-145.860767-27.520797 22.87888z" fill="#eea676"/><path d="m68.8112684 207.873422c2.0431859 12.148879-8.3626548 22.516519-20.5169911 20.477699-7.3257817-1.230059-13.2174041-7.15115-14.3983481-14.473658-1.9427729-12.064838 8.3135398-22.330973 20.4045723-20.393658 7.3432448 1.175487 13.2807079 7.066018 14.5107669 14.389617m90.6314456 3.36056c2.042094 12.148879-8.364838 22.519794-20.519174 20.478791-7.325782-1.231151-13.217404-7.152242-14.396165-14.474749-1.942773-12.064838 8.312448-22.329882 20.402389-20.393658 7.345428 1.176578 13.280708 7.066017 14.51295 14.389616" fill="#151e23"/><path d="m105.333215 252.293068h-25.0563123c-5.1254278 0-9.2805605 4.147492-9.2805605 9.266372 0 5.117787 4.1551327 9.266371 9.2805605 9.266371h25.0563123c5.125428 0 9.281652-4.148584 9.281652-9.266371 0-5.11888-4.156224-9.266372-9.281652-9.266372" fill="#ed9d69"/><path d="m129.524012 290.280826c-22.083216-.108053-44.1664309-.212832-66.2507377-.320885.9277286 1.350118 12.5996461 17.703245 33.5761357 17.528614 20.313982-.171357 31.612625-15.694986 32.674602-17.20882" fill="#c87762"/><path d="m313.236106 221.731504c0 17.976107-14.594808 32.546903-32.592743 32.546903-18.005575 0-32.597109-14.570796-32.597109-32.546903v-10.137345c0-17.973923 14.592625-32.544719 32.597109-32.544719 17.997935 0 32.592743 14.570796 32.592743 32.544719z" fill="#f5c191"/><path d="m296.924454 216.662832c0 8.578761-6.965604 15.533451-15.557463 15.533451-8.59295 0-15.557463-6.953599-15.557463-15.53236s6.964513-15.533451 15.557463-15.533451c8.591859 0 15.557463 6.95469 15.557463 15.533451" fill="#eea676"/></g></g></svg>